<?xml version="1.0" encoding="UTF-8"?>
<svg width="92px" height="24px" viewBox="0 0 92 24" version="1.1" xmlns="http://www.w3.org/2000/svg" xmlns:xlink="http://www.w3.org/1999/xlink">
    <!-- Generator: sketchtool 60.1 (101010) - https://sketch.com -->
    <title>1F544A64-E6EC-40EF-B175-6D35BE3A9218</title>
    <desc>Created with sketchtool.</desc>
    <g id="Blog-Article" stroke="none" stroke-width="1" fill="none" fill-rule="evenodd">
        <g id="Roofstock-Academy" transform="translate(-265.000000, -603.000000)" fill="#000000" fill-rule="nonzero">
            <g id="Group" transform="translate(0.000000, 549.000000)">
                <g id="Forbes_logo" transform="translate(265.000000, 54.000000)">
                    <path d="M28.8724594,7.61102743 C30.9193307,8.81668558 32.1592302,10.9589744 32.5041693,13.8858697 C32.6094913,14.7795542 32.5411563,16.6671217 32.3752712,17.4463067 C31.6963295,20.6353873 29.7189597,22.8631425 26.8219646,23.7028024 C26.5097904,23.793282 26.0256999,23.8991401 25.7462077,23.9380414 C25.1547779,24.0203611 23.3497791,24.0186661 22.7773951,23.9352515 C21.1792961,23.7023651 19.7815429,23.0254313 18.7141542,21.96742 C17.8238167,21.0849056 17.2465562,20.1143618 16.8210267,18.7845187 C16.1566695,16.708303 16.1564362,14.0389374 16.8204335,12.0050664 C17.4639265,10.0340018 18.9128011,8.31827984 20.686059,7.42748681 C23.1417617,6.19386879 26.598078,6.27135997 28.8724594,7.61102743 Z M25.7595947,8.27270995 C25.1325791,7.70583098 24.1574239,7.52026622 23.4537737,7.83392899 C22.427215,8.29153334 21.7679129,9.6461865 21.4558034,11.939112 C21.23355,13.5719055 21.2565845,16.9041758 21.500483,18.4026459 C21.8852267,20.7664453 22.6529061,22.2602564 23.7355055,22.751729 C24.1717534,22.9497743 24.9701791,22.9387395 25.4215435,22.7284253 C26.6666298,22.1482763 27.334134,20.4789025 27.5517416,17.4009703 C27.854992,13.1116841 27.1521333,9.53169159 25.7595947,8.27270995 Z M72.9623947,23.7750139 C74.4895047,23.5271796 75.9932969,22.7936899 77.0740982,21.7694954 C77.6661271,21.2084699 77.8624705,20.9377356 77.7801462,20.795921 C77.5604454,20.4174587 77.5699425,20.4178676 77.0089756,20.7627176 C76.1158245,21.3117717 75.6681252,21.463151 74.6187548,21.5709139 C73.3930175,21.6967899 72.2623904,21.4917798 71.2176731,20.9542163 C70.5246286,20.5976079 69.6940891,19.7773881 69.2789874,19.0396324 C68.7125172,18.032842 68.405147,16.8567908 68.313477,15.345457 C68.2749873,14.7108593 68.2833312,14.5527501 68.3578192,14.5055478 C68.4085873,14.4733759 70.6062214,14.4469486 73.2772651,14.44639 L78.1049488,14.4453809 L78.1049488,14.2545055 C78.1049488,13.8207206 77.9626623,12.6547215 77.8351257,12.0434011 C77.322317,9.58533101 75.9684104,7.83258747 74.0378444,7.12750958 C73.2694353,6.84687481 72.5425213,6.72871284 71.5844914,6.72871284 C69.3145178,6.72871284 67.4606082,7.47383364 66.0264797,8.96258205 C64.8830588,10.149556 64.2046456,11.4829612 63.7906116,13.3571328 C63.6658234,13.9219883 63.6449046,14.2155238 63.6449046,15.4017201 C63.6449046,16.5791379 63.6662452,16.8828013 63.7872372,17.4274226 C64.5557715,20.8867323 66.8299249,23.1648174 70.097255,23.7483617 C70.9252769,23.8962467 72.1454517,23.9075975 72.9623947,23.7750146 L72.9623947,23.7750139 Z M68.3274031,13.3397604 C68.2778148,13.2594688 68.4008367,12.0855024 68.5225602,11.477431 C68.815945,10.0117726 69.2856967,8.95338338 69.9320922,8.30164613 C70.2797909,7.95107658 70.4384421,7.84179142 70.7220067,7.7575221 C70.9171572,7.69952574 71.1381761,7.65223971 71.2131585,7.65244089 C71.5155791,7.65326002 71.8724256,7.80768176 72.1380174,8.05266949 C72.8508669,8.71022787 73.2587452,10.1222812 73.3395669,12.2123955 L73.379467,13.2441549 L72.6940084,13.2823788 C71.3181482,13.3591029 68.363329,13.3979322 68.3274031,13.3397604 L68.3274031,13.3397604 Z M86.3433168,23.780928 C89.1434854,23.3553558 90.9513853,21.8527438 91.4256253,19.5568484 C91.654619,18.4482138 91.5477509,17.2154187 91.1511888,16.3910358 C90.5959755,15.2368551 89.6571707,14.5400492 87.331921,13.5562743 C85.6049481,12.8256213 84.569728,12.2062498 84.1457684,11.6500086 C83.7955191,11.1904811 83.6816583,10.8371533 83.6863311,10.2242968 C83.6933831,9.29992443 84.0435335,8.59194718 84.7119749,8.15051486 C85.2716237,7.78093131 85.9729198,7.69076699 86.7894541,7.88341855 C87.7762063,8.11623307 88.5182328,8.72229754 89.1883614,9.84277159 C89.4016165,10.1993403 89.8400756,11.2003063 90.0535812,11.8179906 C90.086706,11.9138264 90.1248463,11.9178575 90.3550132,11.8498492 C90.4999425,11.8070257 90.638881,11.7516101 90.663774,11.7267044 C90.6886605,11.701798 90.687026,10.7569554 90.6601491,9.6270551 L90.6112594,7.5726901 L90.3721226,7.47136233 C89.9685678,7.3003735 88.9153353,7.01365047 88.2216779,6.88594819 C87.6996883,6.78984995 87.2404751,6.76496798 86.0137953,6.76621904 C84.5496,6.76792736 84.4300382,6.77751054 83.8253024,6.94169221 C82.0686978,7.41860208 80.7663305,8.41062593 80.0857622,9.79014325 C79.7240649,10.5233026 79.599079,11.0884298 79.6031916,11.9720892 C79.6089914,13.2267561 79.9506925,14.1529139 80.7062299,14.9621048 C81.3563229,15.6583646 82.2014937,16.1551135 83.6411453,16.6871059 C84.7740263,17.1057365 85.9434923,17.690249 86.3867231,18.0593801 C86.6472269,18.2763253 86.8519009,18.5234843 87.0045414,18.8054388 C87.2216125,19.2063929 87.2328167,19.2594295 87.2329419,19.8866205 C87.2329419,20.4908613 87.2155293,20.5832219 87.0238587,20.9881063 C86.5230648,22.0459724 85.5212199,22.5711985 84.2089863,22.4638221 C82.4258937,22.317917 81.1706432,21.1379336 80.1486242,18.646918 C79.8820372,17.997166 79.863781,17.9836987 79.458506,18.1378949 L79.2724705,18.2086772 L79.3190074,20.5316238 C79.3603113,22.5932814 79.3779809,22.8641101 79.4760702,22.9393865 C79.7691255,23.1642786 81.6660921,23.6148436 82.9820758,23.7721297 C84.0036335,23.8942259 85.570861,23.8983282 86.34333,23.780928 L86.3433168,23.780928 Z M52.1182479,7.52340805e-06 C52.1798518,0.0010594688 52.1885779,0.86232457 52.1570171,3.82671755 C52.1346173,5.9306638 52.1317398,7.65207416 52.1506241,7.65207416 C52.1695064,7.65207416 52.4154573,7.54549906 52.6971811,7.41524105 C53.5463829,7.02260313 54.3290898,6.85223493 55.4659134,6.81258378 C56.2228026,6.7861842 56.5734012,6.80271634 56.9617289,6.88311875 C59.5006528,7.40879532 61.3795161,9.48842351 62.0361154,12.4997246 C62.2074009,13.2852748 62.2711251,15.2375621 62.1574,16.215444 C62.0604706,17.0489075 61.783931,18.1718931 61.4961563,18.9006559 C60.4102669,21.650571 58.0804399,23.4446119 54.9897219,23.9108187 C54.2777865,24.0182077 52.042136,24.0317072 51.0831016,23.9344086 C50.4292711,23.8680743 48.4312303,23.5353256 47.7332882,23.376539 L47.2504289,23.266686 L47.2880822,20.6862685 C47.3787372,14.4736536 47.3901398,11.0821958 47.3314622,7.78398302 C47.2739814,4.55301695 47.2572187,4.21140071 47.1327132,3.73346921 C46.9749531,3.12788884 46.7472518,2.70546722 46.473388,2.51031796 C46.3669971,2.43450664 46.0779444,2.3270682 45.8310497,2.27156689 C45.0103936,2.08708576 45.0549717,2.11666764 45.0330623,1.74201681 C45.0204418,1.52620601 45.0438084,1.38363562 45.0989692,1.33988871 C45.1729188,1.28124203 51.9038612,-0.00358589941 52.1182479,7.52340805e-06 Z M9.52694897,0.411369744 L18.6202849,0.430064527 L18.6629208,0.693882238 C18.6863705,0.838981979 18.7248582,2.32730498 18.7484489,4.00126661 L18.7913411,7.04483241 L18.322491,7.1873441 C17.6167423,7.40186351 17.6210124,7.40447663 17.3035308,6.5638263 C16.5237,4.49893497 15.6294812,3.30911116 14.4058858,2.70829469 C13.5704161,2.29805803 13.1796296,2.24484977 10.8594268,2.24382664 L8.71441982,2.24381129 L8.67866596,2.59007203 C8.61161751,3.23939601 8.50574921,7.41632732 8.50648275,9.38337789 L8.50721432,11.3455221 L9.11685355,11.3420265 C9.45215513,11.3401007 10.1133283,11.3154106 10.5861276,11.2871531 C11.2968727,11.2446738 11.5080524,11.2069176 11.8054061,11.0691625 C12.5360023,10.7306982 13.0330422,9.98577002 13.3375494,8.77289513 L13.4947553,8.14673237 L14.0327042,8.12757657 L14.5706532,8.10842076 L14.5706532,16.0336209 L14.0324979,16.0144651 L13.4943427,15.9953093 L13.3415889,15.3687422 C13.0545793,14.191484 12.5022323,13.3486755 11.8197,13.0465415 C11.5044914,12.9070097 10.7245375,12.8277061 9.21571397,12.7817774 L8.50721432,12.7602103 L8.50721432,14.2488901 C8.50721432,15.8711494 8.59633237,18.0657718 8.71057415,19.2568289 C8.86983301,20.9172303 9.29383018,21.8347501 10.055288,22.1667574 C10.20069,22.2301554 10.6607237,22.3331327 11.0775851,22.3955955 C11.4944466,22.458059 11.8874167,22.5359861 11.9508522,22.5687675 C12.1117277,22.651903 12.1212216,23.5118452 11.9619384,23.573012 C11.8372839,23.6208811 0.20633342,23.617309 0.0876021922,23.5693647 C0.032805511,23.5472383 0.00521851185,23.3828674 0.00521851185,23.0785002 C0.00521851185,22.5320242 -0.0295872749,22.556492 1.02677615,22.3603581 C1.83697984,22.2099285 2.12684497,22.0560977 2.48462306,21.586681 C3.1783123,20.6765382 3.32824796,18.9241001 3.32980204,11.7082715 C3.33126188,4.93175299 3.20080897,3.50621531 2.48337682,2.45887483 C2.16507377,1.99420148 1.62866229,1.74188556 0.730194899,1.63421826 L0.038171984,1.5512898 L0.019085992,1.01064421 L1.42108547e-14,0.469998614 L0.216806825,0.431336788 C0.336050545,0.41007308 4.52561435,0.401088109 9.52694897,0.411369744 Z M52.607002,8.70854459 L52.5660065,8.72011708 L52.038751,8.87223108 L51.9790176,10.9497955 C51.9037083,13.5690912 52.0260731,22.5222142 52.1390422,22.6584318 C52.1800219,22.7078449 52.3225114,22.7597814 52.4556856,22.7738461 C53.0505821,22.8366737 53.7186063,22.8147122 54.0303112,22.7220792 C54.5134381,22.5785023 55.1313263,22.1391588 55.5033901,21.6746595 C56.270887,20.7164875 56.8222065,19.2333135 57.1251965,17.311633 C57.2703019,16.3913175 57.2898815,13.8049825 57.1573809,13.0603372 C56.7506072,10.7742961 55.9673479,9.37756731 54.7750683,8.81213604 C54.1917824,8.53551624 53.3732151,8.49699193 52.607002,8.70854459 Z M32.5764732,23.5569086 C32.5163595,23.5185791 32.4967172,23.3664698 32.5105663,23.0465288 L32.5302955,22.5907522 L32.7609698,22.5415955 C32.8878407,22.5145595 33.1603487,22.4608963 33.3665439,22.422344 C34.0046852,22.3030298 34.3714218,21.9563925 34.5777791,21.2774925 C34.7458965,20.7243961 34.8200069,18.9549502 34.8238756,15.4017196 C34.8286077,11.0559901 34.7381419,10.0297326 34.2990494,9.44797564 C34.0610719,9.1326772 33.8895241,9.04301149 33.3120824,8.93210253 C33.0270948,8.87736497 32.7271925,8.81867608 32.6456326,8.80168292 C32.5135571,8.77416476 32.497342,8.73110311 32.497342,8.40787959 C32.497342,8.09358234 32.5172051,8.03679887 32.6456326,7.98394959 C32.8428888,7.90277684 39.3719636,6.59680352 39.5805221,6.59680352 L39.7432292,6.59680352 L39.711323,7.56963113 C39.693774,8.10468642 39.6657187,8.8837731 39.6489777,9.30093505 L39.6185392,10.059411 L39.8550707,9.6325524 C40.6122657,8.26607691 41.4614305,7.41782712 42.590599,6.89997142 C43.2104552,6.61569531 43.6240298,6.53084909 44.3898474,6.53084909 C45.2980603,6.53084909 46.2059864,6.82740176 46.2059864,7.12404829 C46.2059864,7.32351361 44.6058555,11.5545779 44.5176034,11.5884672 C44.4745517,11.605 44.1621033,11.4854049 43.8232738,11.3227019 C43.1166459,10.9833835 42.4537011,10.8174619 41.8101639,10.8188615 C41.0087718,10.8206027 40.113567,11.1160027 39.7601172,11.4953336 C39.6089313,11.6575894 39.6082195,11.6673454 39.5706572,14.0905731 C39.5334586,16.4903203 39.6133754,19.4175045 39.7482322,20.5948009 C39.8631179,21.597754 40.1294149,22.0915377 40.6794117,22.3214489 C40.8628966,22.3981499 42.0237888,22.5573197 42.4026324,22.5577194 C42.4313441,22.5577498 42.4461732,22.7877909 42.4355859,23.0689216 L42.4163371,23.5800687 L37.5392233,23.59579 C34.8568106,23.6044366 32.6235729,23.5869402 32.5764732,23.5569086 L32.5764732,23.5569086 Z" id="path2995"></path>
                </g>
            </g>
        </g>
    </g>
</svg>