<?xml version="1.0" encoding="UTF-8"?>
<svg width="104px" height="24px" viewBox="0 0 104 24" version="1.1" xmlns="http://www.w3.org/2000/svg" xmlns:xlink="http://www.w3.org/1999/xlink">
    <!-- Generator: sketchtool 60.1 (101010) - https://sketch.com -->
    <title>983ED911-90F0-4728-8A7B-39B361DE655C</title>
    <desc>Created with sketchtool.</desc>
    <g id="Blog-Article" stroke="none" stroke-width="1" fill="none" fill-rule="evenodd">
        <g id="Roofstock-Academy" transform="translate(-505.000000, -603.000000)" fill="#000000" fill-rule="nonzero">
            <g id="Group" transform="translate(0.000000, 549.000000)">
                <g id="fortune_logo" transform="translate(505.000000, 54.000000)">
                    <path d="M18.9026216,4.78737184e-05 C16.9312843,0.00835300544 14.9702402,1.0455519 13.9914732,3.11114185 L13.5393074,4.06458395 L13.5393074,11.942791 L13.5393074,19.8209979 L13.9914732,20.77444 C14.6932147,22.255374 15.7793912,23.1902564 17.4073403,23.7063863 C18.5740422,24.0762825 20.4338083,23.8813614 21.6200939,23.2677135 C22.389586,22.869665 23.4785161,21.6845735 23.8988308,20.7878688 L24.2838434,19.9642381 L24.2838434,11.942791 L24.2838434,3.92134383 L23.8630157,3.07085557 C22.8527472,1.01354489 20.8739588,-0.00805944832 18.9026216,4.78737184e-05 Z M18.9921594,3.90338942 C19.0634541,3.90386853 19.1347627,3.91093027 19.2025733,3.92582007 C19.429899,3.97574212 19.8090235,4.23926528 20.0487054,4.51220934 L20.4874407,5.00907354 L20.4874407,11.9069809 L20.4874407,18.8048883 L20.1651046,19.2748949 C19.9878198,19.5346051 19.6548565,19.8126298 19.4264178,19.892618 C19.1979774,19.9726047 18.9401085,20.037004 18.8533758,20.0358879 C18.5081352,20.0312314 17.9722623,19.6494019 17.662523,19.1898461 L17.3357101,18.7064107 L17.3357101,11.9606959 C17.3362258,5.52166263 17.3463873,5.19157722 17.6132773,4.75392706 C17.9289297,4.23631025 18.4930964,3.90008412 18.9921594,3.90338942 Z" id="path3022"></path>
                    <path d="M64.0694579,23.6314761 C62.408824,23.0156409 61.3179498,21.9547687 60.6893357,20.3443158 C60.4681258,19.7775919 60.4458932,18.8204943 60.4497683,10.0310251 L60.4540376,0.342433386 L62.3889967,0.302581118 L64.3239544,0.26272885 L64.3260604,9.54156931 C64.3276935,16.712024 64.3691602,18.9017788 64.5085584,19.1785101 C64.6077706,19.3754653 64.9169067,19.6594732 65.1955282,19.8096405 C65.8215579,20.1470469 66.346215,20.0433697 66.9209933,19.4686731 L67.3324187,19.0573074 L67.3324187,9.66001744 L67.3324187,0.26272885 L69.2687848,0.302581118 L71.2051493,0.342433386 L71.2047195,10.036441 C71.2042897,19.5094578 71.1974848,19.7486373 70.9057348,20.5283019 C70.4842883,21.6545589 69.4091371,22.785169 68.2141583,23.3587182 C66.9682535,23.95671 65.2511663,24.0697093 64.0694464,23.6314761 L64.0694579,23.6314761 Z" id="path3018"></path>
                    <polygon id="path3016" points="-6.39488462e-14 11.9448837 -6.39488462e-14 0.270813322 4.79922611 0.270813322 9.59845206 0.270813322 9.59845206 2.2761751 9.59845206 4.28153688 6.80487269 4.28153688 4.01129346 4.28153688 4.01129346 7.01049049 4.01129346 9.73944552 5.76623435 9.71506319 7.5211751 9.69068229 7.56103302 11.6414137 7.60089081 13.5921451 5.80609228 13.5921451 4.01129346 13.5921451 4.01129346 18.6055495 4.01129346 23.618954 2.00564673 23.618954 -5.98771385e-14 23.618954 -5.98771385e-14 11.9448837"></polygon>
                    <path d="M29.6549193,11.9448837 L29.6549193,0.270813322 L32.6332904,0.270813322 C35.8764643,0.270813322 36.7641622,0.405110969 37.892963,1.06653802 C38.7444704,1.56548348 39.634436,2.56862704 40.0871935,3.53981228 C40.4534777,4.32550874 40.4680085,4.45638294 40.5146584,7.38985623 C40.5534792,9.83108339 40.5177815,10.6028182 40.3326346,11.3254289 C40.0653205,12.3687097 39.5781117,13.2579015 38.9050567,13.9308607 L38.4291368,14.4067145 L39.6848579,18.7064894 C40.3755039,21.0713668 40.9843379,23.1441202 41.0378228,23.3126093 C41.134101,23.6159145 41.1145561,23.618954 39.0677062,23.618954 L37.0003471,23.618954 L36.3986645,21.291302 C35.7990721,18.9717315 34.2681905,13.1605139 34.1383406,12.7111267 C34.0891364,12.5408429 34.1892038,12.4485174 34.4959905,12.3811444 C35.0643277,12.256335 36.0911287,11.3604453 36.3351729,10.7764467 C36.4768159,10.4374961 36.5314225,9.58505701 36.5314225,7.71288134 L36.5314225,5.11894015 L36.1126607,4.7002378 C35.7235108,4.31114318 35.6171456,4.28153688 34.6084255,4.28153688 L33.5229524,4.28153688 L33.5229524,13.9502454 L33.5229524,23.618954 L31.5889359,23.618954 L29.6549193,23.618954 L29.6549193,11.9448837 L29.6549193,11.9448837 Z" id="path3014"></path>
                    <path d="M48.420554,23.511524 C48.4196944,23.4524374 48.4036191,19.117633 48.3847388,13.8786254 L48.3504123,4.35315694 L46.5954714,4.31293798 L44.8405304,4.27271902 L44.8405304,2.27176617 L44.8405304,0.270813322 L50.2844287,0.270813322 L55.7283269,0.270813322 L55.7283269,2.2761751 L55.7283269,4.28153688 L54.0092012,4.28153688 L52.2900754,4.28153688 L52.2900754,13.9502454 L52.2900754,23.618954 L50.356059,23.618954 C49.2923499,23.618954 48.4213735,23.5706105 48.420554,23.511524 Z" id="path3012"></path>
                    <path d="M76.3578305,11.9448837 L76.3578305,0.270813322 L78.3338868,0.270813322 L80.3099373,0.270813322 L80.4625412,0.807963799 C80.5464747,1.10339656 81.198913,3.18216891 81.9124046,5.42745789 C82.6258977,7.67274689 83.4136245,10.1704966 83.6629073,10.9780128 C83.912192,11.7855291 84.1769302,12.4462241 84.2512151,12.4462241 C84.333809,12.4462241 84.3827153,10.0950921 84.3771023,6.39432875 L84.3679194,0.342433386 L86.3081849,0.302581118 L88.2484503,0.26272885 L88.2484503,11.9408414 L88.2484503,23.618954 L86.0576281,23.618954 L83.8668057,23.618954 L83.4566423,22.2939828 C83.2310529,21.5652487 82.8336698,20.3013981 82.573569,19.4854264 C82.3134681,18.6694562 81.7323204,16.816287 81.2821288,15.3672728 C80.8319384,13.9182599 80.4101094,12.7327044 80.344731,12.7327044 C80.2793541,12.7327044 80.2258634,15.1821105 80.2258634,18.1758292 L80.2258634,23.618954 L78.291847,23.618954 L76.3578305,23.618954 L76.3578305,11.9448837 L76.3578305,11.9448837 Z" id="path3010"></path>
                    <polygon id="path3006" points="93.4058334 11.9448837 93.4058334 0.270813322 98.2050595 0.270813322 103.004286 0.270813322 103.004286 2.2761751 103.004286 4.28153688 100.135914 4.28153688 97.2675443 4.28153688 97.3065197 6.96728926 97.3454967 9.65304165 99.1722153 9.65304165 100.998934 9.65304165 100.998791 11.6225934 100.998647 13.5921451 99.1362612 13.5921451 97.273875 13.5921451 97.273875 16.6001878 97.273875 19.6082305 100.139085 19.6082305 103.004294 19.6082305 103.004294 21.6135922 103.004294 23.618954 98.2050681 23.618954 93.405842 23.618954 93.405842 11.9448837"></polygon>
                </g>
            </g>
        </g>
    </g>
</svg>