<?xml version="1.0" encoding="UTF-8"?>
<svg width="70px" height="24px" viewBox="0 0 70 24" version="1.1" xmlns="http://www.w3.org/2000/svg" xmlns:xlink="http://www.w3.org/1999/xlink">
    <!-- Generator: sketchtool 60.1 (101010) - https://sketch.com -->
    <title>C6865B35-0A0C-4E87-AA7C-9FC60DB17F0C</title>
    <desc>Created with sketchtool.</desc>
    <g id="Blog-Article" stroke="none" stroke-width="1" fill="none" fill-rule="evenodd">
        <g id="Roofstock-Academy" transform="translate(-1366.000000, -603.000000)" fill="#000000" fill-rule="nonzero">
            <g id="Group" transform="translate(0.000000, 549.000000)">
                <g id="inc_logo" transform="translate(1366.000000, 54.000000)">
                    <polygon id="svg_2" points="0 5.52631579 3.06315693 5.52631579 3.06315693 18.4421033 0 18.4421033 0 23.5578967 16.3894742 23.5578967 16.3894742 18.4421033 13.2947364 18.4421033 13.2947364 5.52631579 16.3894742 5.52631579 16.3894742 0 0 0"></polygon>
                    <path d="M41.6210526,18.4421053 L41.6210526,11.6526316 C41.6210526,7.32631579 38.4631579,5.74736842 34.5473684,5.74736842 C31.7684211,5.74736842 29.6526316,6.50526316 27.8210526,8.62105263 C27.6947368,8.77894737 27.5368421,8.96842105 27.3473684,9.12631579 L27.3473684,5.55789474 L17.2421053,5.55789474 L17.2421053,10.7052632 L19.5473684,10.7052632 L19.5473684,18.4421053 L17.2421053,18.4421053 L17.2421053,23.5894737 L30.0631579,23.5894737 L30.0631579,18.4421053 L27.6315789,18.4421053 L27.6315789,13.9894737 C27.6315789,12.0947368 29.0526316,10.7052632 30.9473684,10.7052632 C32.4315789,10.7052632 33.6,11.4315789 33.6,13.0421053 L33.6,18.4105263 L31.2315789,18.4105263 L31.2315789,23.5578947 L43.7684211,23.5578947 L43.7684211,18.5052632 C43.7684211,18.4736842 43.7368421,18.4421053 43.7368421,18.4105263 L41.6210526,18.4105263 L41.6210526,18.4421053 Z" id="svg_3"></path>
                    <path d="M64.1684211,16.9263158 L57.5052632,16.9263158 L57.2842105,16.9263158 C57.2842105,18.8210526 55.8947368,19.7052632 54.3473684,19.7052632 C51.3789474,19.7052632 51.1263158,17.2105263 51.1263158,14.8421053 L51.1263158,14.7789474 L51.1263158,14.7789474 C51.1263158,12.4105263 51.3473684,9.91578947 54.3473684,9.91578947 C56.6842105,9.91578947 57.0947368,11.9368421 57.1578947,13.8631579 L64.0736842,13.1052632 C63.3473684,6.06315789 56.4,5.62105263 54.6631579,5.62105263 C54.4105263,5.62105263 54.2842105,5.62105263 54.2842105,5.62105263 C48.5684211,5.62105263 42.9473684,8.43157895 42.9473684,14.8105263 C42.9473684,16.1684211 43.2,17.3684211 43.6736842,18.4105263 L43.7052632,18.4105263 L43.7052632,18.5052632 C45.4105263,22.2947368 49.8315789,24 54.2842105,24 C57.9157895,24 63,23.1157895 64.1368421,17.5263158 L64.1684211,16.9263158 Z" id="svg_4"></path>
                    <circle id="svg_5" cx="66.5368459" cy="20.7473674" r="2.9052631"></circle>
                </g>
            </g>
        </g>
    </g>
</svg>