<?xml version="1.0" encoding="UTF-8"?>
<svg width="685px" height="548px" viewBox="0 0 685 548" version="1.1" xmlns="http://www.w3.org/2000/svg" xmlns:xlink="http://www.w3.org/1999/xlink">
    <!-- Generator: sketchtool 60.1 (101010) - https://sketch.com -->
    <title>0E8111A1-D939-4694-91D7-744957115187</title>
    <desc>Created with sketchtool.</desc>
    <g id="Blog-Article" stroke="none" stroke-width="1" fill="none" fill-rule="evenodd">
        <g id="Roofstock-Academy" transform="translate(-1015.000000, 0.000000)" fill="#FFFFFF">
            <g id="Hero">
                <g id="Background">
                    <g id="tiles-bg" transform="translate(1015.000000, 0.000000)">
                        <rect id="Rectangle" opacity="0.0421316964" x="548" y="411" width="137" height="137"></rect>
                        <rect id="Rectangle" opacity="0.102132" x="548" y="274" width="137" height="137"></rect>
                        <rect id="Rectangle" opacity="0.0391437188" x="411" y="137" width="137" height="137"></rect>
                        <rect id="Rectangle" opacity="0.0956215833" x="411" y="0" width="137" height="137"></rect>
                        <rect id="Rectangle" opacity="0.067975564" x="274" y="137" width="137" height="137"></rect>
                        <rect id="Rectangle" opacity="0.067975564" x="137" y="274" width="137" height="137"></rect>
                        <rect id="Rectangle" opacity="0.067975564" x="274" y="274" width="137" height="137"></rect>
                        <rect id="Rectangle" opacity="0.0391437188" x="548" y="0" width="137" height="137"></rect>
                        <rect id="Rectangle" opacity="0.082132" x="411" y="411" width="137" height="137"></rect>
                        <rect id="Rectangle" opacity="0.173463845" x="274" y="411" width="137" height="137"></rect>
                        <rect id="Rectangle" opacity="0.299014137" x="137" y="411" width="137" height="137"></rect>
                        <rect id="Rectangle" opacity="0.0486421131" x="0" y="411" width="137" height="137"></rect>
                        <rect id="Rectangle" opacity="0.152132" x="411" y="274" width="137" height="137"></rect>
                        <rect id="Rectangle" opacity="0.0271112351" x="548" y="137" width="137" height="137"></rect>
                        <rect id="Rectangle" opacity="0.131347656" x="274" y="0" width="137" height="137"></rect>
                        <rect id="Rectangle" opacity="0.0307849702" x="137" y="0" width="137" height="137"></rect>
                        <rect id="Rectangle" opacity="0.0307849702" x="0" y="137" width="137" height="137"></rect>
                    </g>
                </g>
            </g>
        </g>
    </g>
</svg>