<?xml version="1.0" encoding="UTF-8"?>
<svg width="129px" height="24px" viewBox="0 0 129 24" version="1.1" xmlns="http://www.w3.org/2000/svg" xmlns:xlink="http://www.w3.org/1999/xlink">
    <!-- Generator: sketchtool 60.1 (101010) - https://sketch.com -->
    <title>D1E5503C-37BF-486A-A122-215CA924E916</title>
    <desc>Created with sketchtool.</desc>
    <g id="Blog-Article" stroke="none" stroke-width="1" fill="none" fill-rule="evenodd">
        <g id="Roofstock-Academy" transform="translate(-1089.000000, -603.000000)" fill="#000000" fill-rule="nonzero">
            <g id="Group" transform="translate(0.000000, 549.000000)">
                <g id="New_Bloomberg_Logo" transform="translate(1089.000000, 54.000000)">
                    <path d="M0,0.2 L9.45,0.2 C11.25,0.2 12.6,0.65 13.6,1.4 C14.7,2.3 15.3,3.6 15.3,5.2 C15.3,7.05 14.55,8.2 13.05,8.9 L13.05,9 C15.05,9.65 16.2,11.45 16.2,13.6 C16.2,15.65 15.4,17.25 14.1,18.25 C13,19.05 11.6,19.4 9.7,19.4 L0,19.4 L0,0.2 Z M8.5,7.7 C9.5,7.7 10.25,7.15 10.25,6 C10.25,4.9 9.5,4.35 8.45,4.35 L5.2,4.35 L5.2,7.65 L8.5,7.65 L8.5,7.7 Z M8.95,15.15 C10.1,15.15 10.95,14.45 10.95,13.2 C10.95,11.85 10.05,11.25 8.95,11.25 L5.25,11.25 L5.25,15.2 L8.95,15.2 L8.95,15.15 Z" id="Shape"></path>
                    <polygon id="Path" points="17.05 0.2 22 0.2 22 19.45 17.05 19.45"></polygon>
                    <path d="M23,12.6 C23,8.25 25.8,5.35 30.15,5.35 C34.5,5.35 37.25,8.3 37.25,12.6 C37.25,16.95 34.5,19.85 30.15,19.85 C25.8,19.85 23,16.95 23,12.6 Z M32.3,12.6 C32.3,10.2 31.55,8.7 30.05,8.7 C28.55,8.7 27.85,10.2 27.85,12.6 C27.85,15 28.55,16.55 30.05,16.55 C31.55,16.5 32.3,15 32.3,12.6 Z" id="Shape"></path>
                    <path d="M37.8,12.6 C37.8,8.25 40.6,5.35 44.95,5.35 C49.3,5.35 52,8.25 52,12.6 C52,16.95 49.25,19.85 44.9,19.85 C40.6,19.85 37.8,16.95 37.8,12.6 Z M47.1,12.6 C47.1,10.2 46.35,8.7 44.85,8.7 C43.35,8.7 42.65,10.2 42.65,12.6 C42.65,15 43.35,16.55 44.85,16.55 C46.35,16.5 47.1,15 47.1,12.6 Z" id="Shape"></path>
                    <path d="M53,5.7 L57.6,5.7 L57.6,7.75 L57.7,7.75 C58.6,6.15 59.85,5.3 61.85,5.3 C63.6,5.3 64.9,6.15 65.55,7.65 L65.65,7.65 C66.75,5.85 68.2,5.3 69.9,5.3 C73.1,5.3 74.45,7.65 74.45,10.8 L74.45,19.4 L69.65,19.4 L69.65,11.65 C69.65,10.25 69.2,9.35 68,9.35 C66.8,9.35 66.2,10.45 66.2,11.95 L66.2,19.4 L61.4,19.4 L61.4,11.65 C61.4,10.25 60.95,9.35 59.75,9.35 C58.55,9.35 57.95,10.45 57.95,11.95 L57.95,19.4 L53,19.4 C53,19.4 53,5.7 53,5.7 Z" id="Path"></path>
                    <path d="M80.5,17.6 L80.45,17.6 L80.45,19.4 L75.85,19.4 L75.85,0.2 L80.65,0.2 L80.65,7.1 L80.75,7.1 C81.65,5.9 82.9,5.25 84.65,5.25 C88.1,5.25 90.1,8.35 90.1,12.5 C90.1,17.15 87.95,19.85 84.35,19.85 C82.85,19.85 81.3,19.15 80.5,17.6 Z M85.15,12.45 C85.15,10.25 84.35,8.8 82.9,8.8 C81.4,8.8 80.5,10.25 80.5,12.45 C80.5,14.65 81.45,16.1 82.9,16.1 C84.35,16.1 85.15,14.7 85.15,12.45 Z" id="Shape"></path>
                    <path d="M90.65,12.55 C90.65,8.25 93.5,5.3 97.6,5.3 C99.65,5.3 101.2,5.95 102.4,7.1 C104,8.65 104.7,11.05 104.65,13.85 L95.45,13.85 C95.65,15.55 96.45,16.45 97.9,16.45 C98.75,16.45 99.5,16.05 99.8,15.15 L104.45,15.15 C103.65,18.3 101.2,19.85 97.75,19.85 C93.5,19.8 90.65,16.9 90.65,12.55 Z M95.45,11.1 L99.85,11.1 C99.75,9.45 98.85,8.6 97.7,8.6 C96.35,8.55 95.6,9.5 95.45,11.1 Z" id="Shape"></path>
                    <path d="M110.1,8.05 L110.2,8.05 C111.2,6.15 112.5,5.4 114.15,5.4 C114.55,5.4 114.8,5.45 114.95,5.55 L114.95,9.75 L114.85,9.75 C112,9.25 110.35,10.6 110.35,13.7 L110.35,19.45 L105.5,19.45 L105.5,5.7 L110.1,5.7 L110.1,8.05 Z" id="Path"></path>
                    <path d="M115.45,19.45 L120.1,19.45 C120.3,20.05 120.9,20.6 122.05,20.6 C123.6,20.6 124.15,19.65 124.15,18.2 L124.15,17.2 L124.05,17.2 C123.3,18.1 122.25,18.75 120.75,18.75 C117.8,18.75 115.2,16.55 115.2,12.25 C115.2,8.3 117.3,5.25 120.5,5.25 C122.35,5.25 123.45,6 124.2,7.15 L124.3,7.15 L124.3,5.65 L128.9,5.65 L128.9,17.55 C128.9,19.75 128.15,21.45 127,22.45 C125.8,23.5 124.1,23.95 122.15,23.95 C118.45,24 115.9,22.5 115.45,19.45 Z M124.35,12.05 C124.35,10.35 123.55,8.95 122.15,8.95 C120.8,8.95 119.95,10.15 119.95,12.05 C119.95,13.9 120.8,15.2 122.15,15.2 C123.5,15.2 124.35,13.85 124.35,12.05 Z" id="Shape"></path>
                </g>
            </g>
        </g>
    </g>
</svg>